HIERARCHY
ROOT Hips
{
 OFFSET 0.000000 0.000000 0.000000
 CHANNELS 6 Xposition Yposition Zposition Yrotation Xrotation Zrotation
 JOINT Chest
 {
  OFFSET 0.000000 9.581000 -0.001100
  CHANNELS 3 Yrotation Xrotation Zrotation
  JOINT Chest2
  {
   OFFSET 0.000000 9.561100 0.002200
   CHANNELS 3 Yrotation Xrotation Zrotation
   JOINT Chest3
   {
    OFFSET 0.000000 9.521100 0.000000
    CHANNELS 3 Yrotation Xrotation Zrotation
    JOINT Chest4
    {
     OFFSET 0.000000 9.511400 0.000000
     CHANNELS 3 Yrotation Xrotation Zrotation
     JOINT Neck
     {
      OFFSET 0.000000 14.375100 0.000000
      CHANNELS 3 Yrotation Xrotation Zrotation
      JOINT Head
      {
       OFFSET 0.000000 8.901200 0.004600
       CHANNELS 3 Yrotation Xrotation Zrotation
       End Site
       {
        OFFSET 0.000000 16.962200 0.002400
       }
      }
     }
     JOINT RightCollar
     {
      OFFSET -2.920100 9.518800 0.000000
      CHANNELS 3 Yrotation Xrotation Zrotation
      JOINT RightShoulder
      {
       OFFSET -13.664500 0.000000 0.000000
       CHANNELS 3 Yrotation Xrotation Zrotation
       JOINT RightElbow
       {
        OFFSET 0.000000 -29.999200 0.000000
        CHANNELS 3 Yrotation Xrotation Zrotation
        JOINT RightWrist
        {
         OFFSET 0.000000 -24.253600 0.000000
         CHANNELS 3 Yrotation Xrotation Zrotation
         End Site
         {
          OFFSET 0.000000 -17.918900 0.000000
         }
        }
       }
      }
     }
     JOINT LeftCollar
     {
      OFFSET 2.920100 9.518800 0.000000
      CHANNELS 3 Yrotation Xrotation Zrotation
      JOINT LeftShoulder
      {
       OFFSET 13.664500 0.000000 0.000000
       CHANNELS 3 Yrotation Xrotation Zrotation
       JOINT LeftElbow
       {
        OFFSET 0.000000 -29.999200 0.000000
        CHANNELS 3 Yrotation Xrotation Zrotation
        JOINT LeftWrist
        {
         OFFSET 0.000000 -24.253600 0.000000
         CHANNELS 3 Yrotation Xrotation Zrotation
         End Site
         {
          OFFSET 0.000000 -17.918900 0.000000
         }
        }
       }
      }
     }
    }
   }
  }
 }
 JOINT RightHip
 {
  OFFSET -7.797300 0.005300 0.000500
  CHANNELS 3 Yrotation Xrotation Zrotation
  JOINT RightKnee
  {
   OFFSET 0.000000 -40.663400 -0.000500
   CHANNELS 3 Yrotation Xrotation Zrotation
   JOINT RightAnkle
   {
    OFFSET 0.000000 -39.523700 -0.000900
    CHANNELS 3 Yrotation Xrotation Zrotation
    JOINT RightToe
    {
     OFFSET 0.000000 -6.418000 14.485300
     CHANNELS 3 Yrotation Xrotation Zrotation
     End Site
     {
      OFFSET 0.000000 -1.465200 6.326400
     }
    }
   }
  }
 }
 JOINT LeftHip
 {
  OFFSET 7.797300 0.005300 0.000500
  CHANNELS 3 Yrotation Xrotation Zrotation
  JOINT LeftKnee
  {
   OFFSET 0.000000 -40.663400 -0.000500
   CHANNELS 3 Yrotation Xrotation Zrotation
   JOINT LeftAnkle
   {
    OFFSET 0.000000 -39.523700 -0.000900
    CHANNELS 3 Yrotation Xrotation Zrotation
    JOINT LeftToe
    {
     OFFSET 0.000000 -6.418000 14.485300
     CHANNELS 3 Yrotation Xrotation Zrotation
     End Site
     {
      OFFSET 0.000000 -1.465200 6.326400
     }
    }
   }
  }
 }
}
MOTION
Frames: 15
Frame Time: 0.008333
0.000000 86.422400 0.000000 0.000000 -5.767877 0.000000 0.000000 11.653817 0.000000 0.000000 -5.885947 0.000000 0.000000 -0.000000 0.000000 0.000000 -0.000000 0.000000 0.000000 12.528835 0.000000 0.000000 0.711642 0.000000 0.000000 -0.000000 0.000000 0.000000 0.000000 -90.000000 0.000000 -2.309062 0.000000 0.000000 2.309062 0.000000 0.000000 -0.000000 0.000000 0.000000 -0.000000 90.000000 0.000000 -2.309062 0.000000 0.000000 2.309062 0.000000 0.000000 8.520406 0.000000 0.000000 1.905762 0.000000 -0.000000 -4.658285 0.000000 0.000000 -0.000000 0.000000 0.000000 8.520406 0.000000 0.000000 1.905762 0.000000 -0.000000 -4.658285 0.000000 0.000000 -0.000000 0.000000
-14.980183 126.909520 20.805994 -171.948961 -47.797511 -2.547233 -3.110148 25.096903 0.991567 -0.515070 4.015030 0.241837 -0.816714 6.413066 0.377363 -2.567891 20.757990 0.914249 7.431343 21.076040 -3.351599 8.915528 -2.815351 -5.416735 1.477894 2.938001 2.332488 -3.456626 -11.087065 -13.641743 -102.983133 -57.415395 151.004577 3.846452 6.876816 12.655995 -8.786033 -1.614795 -1.709543 -5.301484 -14.573137 9.389878 72.717864 -50.582274 -122.068705 4.636728 -10.454266 -17.949422 -4.052279 -24.435489 -2.028501 -4.378034 77.978482 -2.687626 10.718598 -11.571355 1.557349 0.000277 -0.002569 0.000123 7.287365 4.663338 2.607363 129.012809 65.582770 148.940073 4.583333 12.473224 4.996446 -0.000757 -0.001371 -0.000335
-14.980071 126.909234 20.806390 -171.952234 -47.794907 -2.544454 -3.106230 25.097512 0.986893 -0.518908 4.012979 0.242679 -0.814273 6.413088 0.378296 -2.572993 20.757357 0.906623 7.411417 21.068986 -3.354381 8.865449 -2.838146 -5.402463 1.474679 2.926523 2.319298 -3.515804 -11.021202 -13.643249 -102.964539 -57.476929 150.942236 3.949111 6.975562 12.704560 -8.792891 -1.606398 -1.686649 -5.290310 -14.486482 9.397205 72.711425 -50.607645 -122.054679 4.611654 -10.495577 -17.977081 -4.056919 -24.438759 -2.025440 -4.379521 77.976869 -2.694860 10.724532 -11.563169 1.556035 0.000592 -0.001711 0.000262 7.287972 4.664099 2.602806 129.018876 65.581561 148.946878 4.586141 12.461551 5.006887 -0.000861 0.000044 -0.000381
-14.980139 126.909080 20.806743 -171.952466 -47.793161 -2.543312 -3.115090 25.096343 0.976220 -0.514173 4.012133 0.245887 -0.813041 6.414235 0.378316 -2.582160 20.754369 0.898221 7.390114 21.062589 -3.354896 8.828271 -2.855938 -5.395243 1.483497 2.924920 2.318691 -3.581098 -10.965017 -13.657545 -102.947098 -57.545631 150.880648 4.057624 7.085846 12.749167 -8.793983 -1.601262 -1.667698 -5.264115 -14.423823 9.390474 72.639989 -50.632578 -121.985017 4.583114 -10.471402 -17.945636 -4.061877 -24.440630 -2.022496 -4.404370 77.974566 -2.723114 10.728503 -11.555085 1.554353 0.001105 -0.001275 0.000489 7.285607 4.663195 2.600918 129.015989 65.583349 148.947541 4.582214 12.461634 5.006706 0.001212 -0.000419 0.000537
-14.979994 126.909057 20.807012 -171.955237 -47.792470 -2.542112 -3.115675 25.094966 0.974240 -0.512767 4.012436 0.246672 -0.817687 6.412111 0.374482 -2.585062 20.753808 0.896837 7.315491 21.038613 -3.365238 8.830205 -2.860247 -5.396556 1.483548 2.909806 2.290258 -3.650803 -10.894252 -13.645792 -102.928993 -57.625882 150.819448 4.172537 7.201417 12.794834 -8.809199 -1.586936 -1.631148 -5.223510 -14.412628 9.355948 72.502301 -50.649486 -121.836616 4.559890 -10.437372 -17.914939 -4.062767 -24.440978 -2.017583 -4.409651 77.973262 -2.730800 10.722919 -11.549982 1.554160 0.000845 -0.001249 0.000374 7.285829 4.662557 2.601497 129.014716 65.585554 148.949493 4.580697 12.463772 5.004834 0.002646 -0.001098 0.001172
-14.979565 126.909142 20.807186 -171.958367 -47.792752 -2.542788 -3.115274 25.094445 0.974274 -0.516036 4.011190 0.244412 -0.817963 6.411702 0.374011 -2.590870 20.752579 0.895116 7.280071 21.025345 -3.369783 8.790561 -2.878954 -5.392424 1.479055 2.893567 2.262478 -3.714945 -10.823274 -13.633919 -102.912974 -57.718584 150.753395 4.291913 7.323411 12.851937 -8.804091 -1.579486 -1.610533 -5.199700 -14.392175 9.333021 72.347156 -50.661506 -121.669878 4.545192 -10.418014 -17.910658 -4.063955 -24.439291 -2.009451 -4.432376 77.971577 -2.757700 10.721866 -11.548805 1.556252 0.000455 -0.001507 0.000201 7.286676 4.662572 2.605517 129.012010 65.584573 148.945671 4.581646 12.461706 5.006824 0.001764 -0.001201 0.000782
-14.978812 126.909586 20.807042 -171.954203 -47.795632 -2.551249 -3.119520 25.095856 0.975412 -0.516894 4.011205 0.244288 -0.832498 6.403464 0.368222 -2.577825 20.760521 0.898340 7.234005 21.004371 -3.375645 8.797989 -2.875733 -5.395336 1.471343 2.874887 2.236960 -3.742592 -10.776096 -13.616953 -102.888905 -57.846396 150.627641 4.410155 7.447419 12.925187 -8.802456 -1.575919 -1.587570 -5.166821 -14.341685 9.303834 72.202433 -50.673512 -121.526840 4.539307 -10.386398 -17.917216 -4.071559 -24.434419 -1.999921 -4.443038 77.970027 -2.770539 10.715261 -11.543112 1.554576 -0.000753 -0.001617 -0.000333 7.281956 4.665886 2.613476 129.010445 65.585279 148.944443 4.575687 12.458068 5.014247 0.002846 -0.002331 0.001261
-14.978848 126.909454 20.807462 -171.957572 -47.794659 -2.548916 -3.127610 25.089220 0.965886 -0.518112 4.010788 0.243714 -0.834859 6.398851 0.368468 -2.573806 20.767296 0.897434 7.215933 20.995027 -3.378310 8.778916 -2.883938 -5.393512 1.459128 2.814284 2.183183 -3.771072 -10.683523 -13.574027 -102.865278 -57.988137 150.492652 4.529518 7.567783 13.005318 -8.790629 -1.569193 -1.561242 -5.089043 -14.273932 9.260541 72.009733 -50.677902 -121.396588 4.541560 -10.346956 -17.936916 -4.069793 -24.436493 -2.001621 -4.421073 77.970918 -2.749988 10.723035 -11.537157 1.552485 -0.000815 -0.001751 -0.000361 7.283806 4.663877 2.616234 129.008688 65.586226 148.939721 4.576442 12.460462 5.017359 0.000948 -0.002650 0.000420
-14.978785 126.909292 20.807879 -171.959789 -47.793645 -2.547852 -3.146657 25.077692 0.952591 -0.510018 4.013499 0.245189 -0.838614 6.394380 0.366465 -2.576927 20.761959 0.891849 7.205981 20.997363 -3.377567 8.707215 -2.918325 -5.382245 1.465050 2.801963 2.157453 -3.902587 -10.577524 -13.572744 -102.849813 -58.084691 150.459615 4.657909 7.689618 13.083937 -8.762362 -1.546118 -1.532408 -5.029556 -14.235592 9.214394 71.738754 -50.659005 -121.181238 4.553747 -10.311950 -17.975807 -4.069161 -24.439251 -2.004416 -4.394874 77.972602 -2.726402 10.741185 -11.529632 1.550154 -0.000029 -0.001607 -0.000013 7.284712 4.663926 2.618478 129.006610 65.585354 148.935122 4.578415 12.460915 5.011694 -0.001386 -0.000269 -0.000614
-14.978976 126.909319 20.808120 -171.961446 -47.794388 -2.545688 -3.161460 25.068338 0.940774 -0.509954 4.015492 0.244908 -0.838195 6.387991 0.364451 -2.590218 20.759458 0.887284 7.119009 20.952069 -3.396971 8.628992 -2.959367 -5.379708 1.481303 2.795220 2.125319 -3.998449 -10.503158 -13.555466 -102.801714 -58.209525 150.353275 4.797150 7.817125 13.161276 -8.724931 -1.527231 -1.505314 -4.972951 -14.209669 9.163262 71.391823 -50.618827 -120.894223 4.580272 -10.290560 -18.032406 -4.067818 -24.439026 -2.001808 -4.399710 77.975672 -2.728082 10.712216 -11.528696 1.548632 -0.001578 -0.001690 -0.000699 7.287760 4.667409 2.619898 129.002076 65.588202 148.930510 4.580670 12.460784 5.010737 -0.003135 0.001180 -0.001389
-14.979197 126.909699 20.807993 -171.966770 -47.798442 -2.540935 -3.169194 25.062463 0.931087 -0.511103 4.013749 0.244689 -0.833113 6.391557 0.364734 -2.603880 20.748650 0.878374 7.090278 20.942583 -3.401378 8.528043 -3.006629 -5.373850 1.493853 2.794439 2.096572 -4.077019 -10.441927 -13.529989 -102.739032 -58.352610 150.207088 4.940285 7.947686 13.240249 -8.701646 -1.508350 -1.488511 -4.941510 -14.196647 9.135995 70.985154 -50.544542 -120.531665 4.629264 -10.283753 -18.096145 -4.065245 -24.439453 -2.010483 -4.355739 77.981347 -2.689198 10.750354 -11.517747 1.547187 0.001336 -0.001538 0.000592 7.289850 4.673630 2.620879 128.999940 65.590674 148.924518 4.583407 12.460874 5.018027 -0.003823 0.000818 -0.001694
-14.978906 126.909581 20.808268 -171.974558 -47.798317 -2.537300 -3.170354 25.055065 0.926788 -0.515827 4.007856 0.243196 -0.827583 6.396004 0.365676 -2.627109 20.713488 0.864595 7.032879 20.936141 -3.410470 8.484075 -3.019173 -5.372493 1.516416 2.820754 2.068398 -4.156036 -10.381693 -13.502416 -102.671834 -58.505216 150.045014 5.078787 8.080905 13.322854 -8.671442 -1.466063 -1.473629 -4.853610 -14.169092 9.089198 70.482794 -50.446173 -120.149715 4.701648 -10.288037 -18.157986 -4.058100 -24.441111 -2.003860 -4.380973 77.983660 -2.719501 10.749176 -11.518331 1.553524 0.001014 -0.001856 0.000449 7.293085 4.675035 2.621809 129.006560 65.594530 148.935716 4.587896 12.464479 5.005891 -0.000212 0.000464 -0.000094
-14.978540 126.909528 20.808443 -171.971406 -47.798409 -2.542705 -3.175757 25.044275 0.926527 -0.520429 4.005978 0.238886 -0.828996 6.390717 0.364477 -2.629550 20.699299 0.863709 6.955736 20.917367 -3.427191 8.432843 -3.032570 -5.373109 1.525404 2.834259 2.035165 -4.231956 -10.321067 -13.476411 -102.599259 -58.664091 149.863118 5.213218 8.219815 13.406055 -8.655694 -1.443484 -1.446121 -4.754282 -14.141500 9.023131 69.895199 -50.308117 -119.709668 4.789319 -10.306276 -18.207169 -4.061590 -24.440557 -1.996019 -4.403496 77.984605 -2.743114 10.737134 -11.518193 1.554138 0.000811 -0.001983 0.000359 7.289940 4.676104 2.624308 129.008105 65.593031 148.938641 4.587852 12.461966 5.006376 -0.000043 0.000975 -0.000019
-14.978794 126.909449 20.808670 -171.970115 -47.798373 -2.543461 -3.180211 25.033122 0.924466 -0.524133 3.988709 0.236886 -0.826574 6.398899 0.364635 -2.630961 20.693815 0.862591 6.883888 20.899882 -3.444280 8.355042 -3.058539 -5.373734 1.527409 2.837367 2.003381 -4.309569 -10.260523 -13.451545 -102.516207 -58.827396 149.665366 5.351551 8.366161 13.489873 -8.641242 -1.433640 -1.419487 -4.674938 -14.120240 8.961776 69.243144 -50.132978 -119.206002 4.891296 -10.346153 -18.231844 -4.064936 -24.443530 -1.990353 -4.434056 77.990564 -2.774009 10.715235 -11.513088 1.551205 -0.000179 -0.002087 -0.000079 7.287549 4.677637 2.623185 129.003773 65.590506 148.936107 4.583951 12.458762 5.006642 0.000221 0.001314 0.000098
-14.978917 126.909167 20.809018 -171.972872 -47.796977 -2.542196 -3.178948 25.029229 0.925025 -0.526739 3.979055 0.234075 -0.826182 6.392129 0.366777 -2.630352 20.700045 0.861220 6.802999 20.868418 -3.465452 8.269853 -3.087578 -5.375413 1.528133 2.837979 1.988458 -4.389077 -10.214185 -13.439440 -102.426028 -58.992371 149.458617 5.502693 8.521882 13.578091 -8.631665 -1.433879 -1.392705 -4.634022 -14.107711 8.917038 68.578180 -49.929952 -118.654525 5.009332 -10.412999 -18.228021 -4.067322 -24.446536 -1.980328 -4.460326 77.993695 -2.804119 10.690543 -11.511904 1.552460 -0.000998 -0.001596 -0.000442 7.283493 4.678247 2.623778 129.002420 65.590238 148.931155 4.580568 12.457588 5.014016 0.000754 0.001588 0.000334
